@startuml
class ErrorResponse {
    + Errors : Dictionary<string, string> <<get>> <<set>>
    + ErrorResponse(errors:List<ValidationFailure>)
    + ErrorResponse(errors:Dictionary<string, string>)
}
class List {
...
}
ErrorResponse ..> List: <<use>>
class Dictionary {
...
}
ErrorResponse ..> Dictionary: <<use>>
class ValidationFailure {
...
}
ErrorResponse ..> ValidationFailure: <<use>>
@enduml