@startuml
class ScreenRepository {
    - <<readonly>> _screens : List<Screen>
    + GetAllAsync() : Task<List<Screen>>
    + GetByIdAsync(id:int) : Task<Screen?>
    + AddAsync(screen:Screen) : Task
    + UpdateAsync(screen:Screen) : Task
    + DeleteAsync(id:int) : Task<bool>
    + updateScreenProfileDeleteAsync(screenProfileId:int) : Task
    - GetNextId() : int
}
class Task {
...
}
ScreenRepository ..> Task: <<use>>
class List {
...
}
ScreenRepository ..> List: <<use>>
ScreenRepository ..> Screen: <<use>>
class Screen {
    + Id : int <<get>> <<set>>
    + ScreenProfileId : int <<get>> <<set>>
    + ScreenProfile : ScreenProfile <<get>> <<set>>
}
Screen ..> ScreenProfile: <<use>>
class ScreenProfile {
    + Id : int <<get>> <<set>>
    + Name : string <<get>> <<set>>
    + Screens : List<Screen> <<get>> <<set>>
}
ScreenProfile ..> List: <<use>>
@enduml