@startuml
class ScreenHub {
    - {static} <<readonly>> MsgOrderAdded : string = "orderAdded"
    - {static} <<readonly>> MsgOrderUpdated : string = "orderUpdated"
    - {static} <<readonly>> MsgOrderDeleted : string = "orderDeleted"
    + <<async>> AddOrder(orderDto:OrderDto) : Task
    + <<async>> UpdateOrder(orderDto:OrderDto) : Task
    + <<async>> DeleteOrder(orderId:int) : Task
}
Hub <|-- ScreenHub
ScreenHub ..> OrderDto: <<use>>
class OrderDto {
    + Id : int <<get>> <<set>>
    + CustomerId : int <<get>> <<set>>
    + ClientName : string? <<get>> <<set>>
}
class Task {
...
}
ScreenHub ..> Task: <<use>>
@enduml