@startuml
class "LoggingBehavior`2"<TRequest,TResponse> {
    + <<async>> Handle(request:TRequest, next:RequestHandlerDelegate<TResponse>, cancellationToken:CancellationToken) : Task<TResponse>
}
"IPipelineBehavior`2" "<TRequest,TResponse>" <|-- "LoggingBehavior`2"
class TResponse {
...
}
LoggingBehavior ..> TResponse: <<use>>
class CancellationToken {
...
}
LoggingBehavior ..> CancellationToken: <<use>>
class RequestHandlerDelegate {
...
}
LoggingBehavior ..> RequestHandlerDelegate: <<use>>
class TRequest {
...
}
LoggingBehavior ..> TRequest: <<use>>
class Task {
...
}
LoggingBehavior ..> Task: <<use>>
@enduml