@startuml
class ScreenProfile {
    + Id : int <<get>> <<set>>
    + Name : string <<get>> <<set>>
    + Screens : List<Screen> <<get>> <<set>>
}
class List {
...
}
ScreenProfile ..> List: <<use>>
ScreenProfile ..> Screen: <<use>>
class Screen {
    + Id : int <<get>> <<set>>
    + ScreenProfileId : int <<get>> <<set>>
    + ScreenProfile : ScreenProfile <<get>> <<set>>
}
@enduml