@startuml
class CrmAdapter {
    - <<readonly>> _crmApiClient : HttpClient
    - _logger : ILogger<CrmAdapter>
    - _crmJsonSerializerOptions : JsonSerializerOptions
    + CrmAdapter(httpClientFactory:IHttpClientFactory, logger:ILogger<CrmAdapter>)
    + <<async>> GetAllOrdersAsync() : Task<List<OrderDto>>
    + <<async>> GetOrderById(id:int) : Task<OrderDto>
}
class HttpClient {
...
}
CrmAdapter ..> HttpClient: <<use>>
interface IHttpClientFactory {
...
}
CrmAdapter ..> IHttpClientFactory: <<use>>
CrmAdapter ..> OrderDto: <<use>>
class OrderDto {
    + Id : int <<get>> <<set>>
    + CustomerId : int <<get>> <<set>>
    + ClientName : string? <<get>> <<set>>
}
class JsonSerializerOptions {
...
}
CrmAdapter ..> JsonSerializerOptions: <<use>>
class List {
...
}
CrmAdapter ..> List: <<use>>
interface ILogger {
...
}
CrmAdapter ..> ILogger: <<use>>
class Task {
...
}
CrmAdapter ..> Task: <<use>>
@enduml