@startuml
class GetAllScreenProfilesQueryHandler {
    + <<async>> Handle(request:GetAllScreenProfilesQuery, cancellationToken:CancellationToken) : Task<List<ScreenProfileDto>>
}
"IRequestHandler`2" "<GetAllScreenProfilesQuery,List<ScreenProfileDto>>" <|-- GetAllScreenProfilesQueryHandler
GetAllScreenProfilesQueryHandler ..> ScreenProfileDto: <<use>>
class ScreenProfileDto {
    + Id : int <<get>> <<set>>
    + Name : string <<get>> <<set>>
    + Screens : List<ScreenDto> <<get>> <<set>>
}
ScreenProfileDto ..> ScreenDto: <<use>>
class ScreenDto {
    + Id : int <<get>> <<set>>
    + ScreenProfileId : int <<get>> <<set>>
}
ScreenProfileDto ..> List: <<use>>
class CancellationToken {
...
}
GetAllScreenProfilesQueryHandler ..> CancellationToken: <<use>>
GetAllScreenProfilesQueryHandler ..> GetAllScreenProfilesQuery: <<use>>
class GetAllScreenProfilesQuery {
}
"IRequest`1" "<List<ScreenProfileDto>>" <|-- GetAllScreenProfilesQuery
class List {
...
}
GetAllScreenProfilesQueryHandler ..> List: <<use>>
class Task {
...
}
GetAllScreenProfilesQueryHandler ..> Task: <<use>>
@enduml